<?xml version="1.0" encoding="utf-8"?>
<!-- Generator: Adobe Illustrator 23.1.0, SVG Export Plug-In . SVG Version: 6.00 Build 0)  -->
<svg version="1.1" id="Слой_1" xmlns="http://www.w3.org/2000/svg" xmlns:xlink="http://www.w3.org/1999/xlink" x="0px" y="0px"
	 viewBox="0 0 800 800" style="enable-background:new 0 0 800 800;" xml:space="preserve">
<style type="text/css">
	.st0{fill:#2EBCE2;}
	.st1{fill:#3CA6DE;}
	.st2{fill:#3F4A50;}
	.st3{fill:#F2F5F9;}
	.st4{fill:#FFD920;}
	.st5{fill:#E9E9E9;}
	.st6{fill:#F5F6F7;}
</style>
<g>
	<circle class="st0" cx="402.3" cy="401.5" r="400"/>
	<path class="st1" d="M570.5,609H228c-18,0-32.7-14.6-32.7-32.7c0-18,14.6-32.7,32.7-32.7h342.5c18,0,32.7,14.6,32.7,32.7
		C603.1,594.4,588.5,609,570.5,609z"/>
	<path class="st2" d="M349.6,199L349.6,199c-55.8,0-101,45.2-101,101v144.1h202V300C450.6,244.2,405.4,199,349.6,199z"/>
	<path class="st3" d="M355,254.2l-5.3,12.1l-5.3-12.1c-8.6-19.6-34.3-25-49.6-10c-14.4,14.2-23.4,34-23.4,55.8v144.1h156.6V300
		c0-21.8-9-41.6-23.4-55.8C389.3,229.2,363.6,234.7,355,254.2z"/>
	<polygon class="st4" points="340.1,274.2 349.6,269.1 359.2,274.2 349.6,283.6 	"/>
	<path class="st2" d="M317.3,264.7c0,3.2-2.6,5.8-5.8,5.8c-3.2,0-5.8-2.6-5.8-5.8s2.6-5.8,5.8-5.8
		C314.7,259,317.3,261.5,317.3,264.7z"/>
	<path class="st2" d="M382,264.7c0,3.2,2.6,5.8,5.8,5.8c3.2,0,5.8-2.6,5.8-5.8s-2.6-5.8-5.8-5.8C384.6,259,382,261.5,382,264.7z"/>
	<path class="st5" d="M488.6,325.6L475.8,341l-18.1-21.8L439.6,341l-18.1-21.8L403.4,341l-18.1-21.8L367.2,341l-18.1-21.8L331,341
		L313,319.2L294.9,341l-18.1-21.8L258.7,341l-18.1-21.8L222.5,341l-12-14.5c-5.5,21.7-8.5,45.1-8.5,69.5c0,114.9,66.1,177,147.6,177
		c81.5,0,147.6-62.1,147.6-177C497.3,371.3,494.2,347.6,488.6,325.6z"/>
	<path class="st6" d="M574.7,408.2l-24.1-14.9l-10.2,26.4l-24.1-14.9l-10.2,26.4L482,416.4l-10.2,26.4L447.7,428l-10.2,26.4
		l-24.1-14.9L403.2,466l-24.1-14.9l-10.2,26.4l-24.1-14.9l-7.2,18.7c45,69.5,115,106.5,175.6,86c60.9-20.5,94.2-92.8,87.6-175.8
		l-16-9.9L574.7,408.2z"/>
</g>
</svg>
